<svg xmlns="http://www.w3.org/2000/svg" viewBox="0 0 64 80" x="0px" y="0px"><g><path d="M39,53.09V51.26a15.5,15.5,0,0,0,2.61-1.76,5.63,5.63,0,0,0,.85-.77,15,15,0,0,0,3-4.14,2.26,2.26,0,0,0,.17-.35,14.69,14.69,0,0,0,1.24-4.33l0,0s0,0,0,0A14.13,14.13,0,0,0,47,38v0c1.84-.19,3.25-2.29,3.25-5S48.84,28.22,47,28v0a15,15,0,0,0-30,0v0c-1.84.19-3.25,2.29-3.25,5s1.41,4.78,3.25,5v0a15,15,0,0,0,8,13.26v1.83c-8.71.88-14.51,5.1-16,11.69l2,.44c1.27-5.73,6.24-9.29,14-10.12v.16a4,4,0,0,0,2.32,3.64,10.51,10.51,0,0,0,9.36,0A4,4,0,0,0,39,55.26V55.1c7.78.83,12.75,4.39,14,10.12l2-.44C53.51,58.19,47.71,54,39,53.09ZM19,38V35.12a5.67,5.67,0,0,0,3-2.58c1.94-3.22-1.91-7.84,1.12-10.47,4.36,3.74,13.43,3.74,17.79,0,3,2.63-.82,7.25,1.12,10.47a5.67,5.67,0,0,0,3,2.57V38a13.21,13.21,0,0,1-.14,1.78,2.5,2.5,0,0,1-.09.25.13.13,0,0,0,0,0s0,0,0,0l-.11.22a6.52,6.52,0,0,1-.48.8c-.18.27-.37.54-.56.8l-.3.41a2.43,2.43,0,0,1-.14.2l-.06.08a3.47,3.47,0,0,1-.25.29l-.17.16,0,0,0,0c-.26.18-.53.34-.8.5s-.28.16-.43.24l-.07,0a3.3,3.3,0,0,1-2.73-.79,17.74,17.74,0,0,0-1.32-1.42,3,3,0,0,0-.56-.49,6.89,6.89,0,0,0-3.39-1.32,15.54,15.54,0,0,0-3.54.14,7.43,7.43,0,0,0-3.41,1.64l-.05.05a14.22,14.22,0,0,0-2,1.57c-.21.13-.41.27-.62.39s-.41.23-.62.34l-.27.12-.29,0h-.09a5.08,5.08,0,0,1-.78,0h0l-.18,0s-.19,0-.29-.08l-.07,0-.16-.1h0l-.13-.13a4,4,0,0,1-.22-.34l-.15-.27L20,42.33l-.41-.76c0-.09-.08-.18-.13-.27A12.82,12.82,0,0,1,19,38Zm13.58,9.69h-.95a4.77,4.77,0,0,1-3.35-.88c-.75-.66-1.46-1.75-1.05-2.75a3.22,3.22,0,0,1,1.57-1.23l.78-.28a7.3,7.3,0,0,1,1.69-.27,12.84,12.84,0,0,1,2.55.2,6.71,6.71,0,0,1,1.6.42l.09,0,.14.09h0l.25.24.1.12,0,0a5.32,5.32,0,0,1,.35.61.61.61,0,0,1,.05.12l0,0,.09.27c0,.11.05.23.07.34a3.8,3.8,0,0,1-.34,1.66,2,2,0,0,1-1.35,1A15.09,15.09,0,0,1,32.58,47.69ZM48.25,33c0,1.52-.62,2.69-1.25,3v-5.9C47.63,30.31,48.25,31.48,48.25,33Zm-32.5,0c0-1.52.62-2.69,1.25-2.95V36C16.37,35.69,15.75,34.52,15.75,33ZM35.82,57.09a8.43,8.43,0,0,1-7.64,0A2,2,0,0,1,27,55.26V52.12a14.64,14.64,0,0,0,10,0v3.14A2,2,0,0,1,35.82,57.09Z"/><ellipse cx="38" cy="33.5" rx="2" ry="2.5"/><path d="M31,39h2a1,1,0,0,0,0-2H31a1,1,0,0,0,0,2Z"/><ellipse cx="26" cy="33.5" rx="2" ry="2.5"/><path d="M34.68,43.55a8.21,8.21,0,0,1-5.36,0,1,1,0,1,0-.64,1.9,10.3,10.3,0,0,0,6.64,0,1,1,0,0,0-.64-1.9Z"/></g><text x="0" y="79" fill="#000000" font-size="5px" font-weight="bold" font-family="'Helvetica Neue', Helvetica, Arial-Unicode, Arial, Sans-serif"></text><text x="0" y="84" fill="#000000" font-size="5px" font-weight="bold" font-family="'Helvetica Neue', Helvetica, Arial-Unicode, Arial, Sans-serif">from the Noun Project</text></svg>