<svg xmlns="http://www.w3.org/2000/svg" width="96" height="96" viewBox="0 0 96 96" role="img" aria-label="Nico">
  <rect width="96" height="96" rx="22" fill="#000"/>
  <g transform="translate(16 8)" fill="#FFFFFF">
    <path d="M39,53.09V51.26A15,15,0,0,0,47,38v0c1.84-.19,3.25-2.29,3.25-5a5.43,5.43,0,0,0-1.94-4.47,2.49,2.49,0,0,0,.33-.57c0,1.18,1.93,1.15,2-.09,0,.11,0,0,.06,0l.28-.15c.26-.13.54-.23.79-.38a2.58,2.58,0,0,0,1.13-1.5A2.79,2.79,0,0,0,52.66,24l-.17-.33a.61.61,0,0,1,0-.11,2,2,0,0,0,.23-.14,3,3,0,0,0,1.65-2.76A5.27,5.27,0,0,0,54,19a1.49,1.49,0,0,0-.11-.83c-.07-.15-.07-.15,0,0a.45.45,0,0,1,0-.39,1.7,1.7,0,0,0-.54-2.5c.19-.73-.25-1.08-.75-1.49-.65-.81-.16-1.73-.51-2.6s-1-1.56-1.34-2.37c-.64-.7-2-.75-2.74-1.37S47,5.9,46.45,5.52a2.86,2.86,0,0,1-1.64-1.39c-.56-.53-1.71-.56-2.43-1a4.15,4.15,0,0,0-1.53-.76,32.23,32.23,0,0,1-4.8-.46,35.17,35.17,0,0,0-3.49-.56,5,5,0,0,1-2.09.51c-1.19-.32-2.09.26-3.09.83-1,.4-1.31-.07-2.19-.24s-1.42.62-2.12,1.08a3.2,3.2,0,0,0-1.19.06,2,2,0,0,0-.71.31,1.79,1.79,0,0,0-.47.48l0,0h-.16c-1.45.16-2.79,1-4.22,1.17-.27.17-.41.72-.62,1-.64.74-1.73.8-2.09,1.76-.53,1.33-2.17,1.68-1.85,3.33-.15,1.08-1.33,1.44-1.28,2.55A3.94,3.94,0,0,1,10,16.7c-.07.38.16.74.18,1.14,0,.89-.92,1.46-.76,2.32.11.63.55,1.07.55,1.64a1.81,1.81,0,0,0,0,2.83,4.63,4.63,0,0,0,.69,1.12,6.32,6.32,0,0,0,1.45,1.07l.06,0,0,0,.07.07,0,0a3.45,3.45,0,0,0,.36.94,3,3,0,0,0,1.67,1.36.81.81,0,0,0,.63,0A6.06,6.06,0,0,0,13.75,33c0,2.68,1.41,4.78,3.25,5v0a15,15,0,0,0,8,13.26v1.83c-8.71.88-14.51,5.1-16,11.69l2,.44c1.27-5.73,6.24-9.29,14-10.12v.16a4,4,0,0,0,2.32,3.64,10.51,10.51,0,0,0,9.36,0A4,4,0,0,0,39,55.26V55.1c7.78.83,12.75,4.39,14,10.12l2-.44C53.51,58.19,47.71,54,39,53.09ZM47,36v-5.9c.63.26,1.25,1.43,1.25,2.95S47.63,35.69,47,36ZM15.75,33c0-1.52.62-2.69,1.25-2.95V36C16.37,35.69,15.75,34.52,15.75,33ZM19,38V29.7a3.09,3.09,0,0,0,1.18-.38c.62-.38.68-.89.86-1.53.44-1.57,2.63-1.1,3.49-2.43a6.3,6.3,0,0,1,.42-.82c.4-.44.48-.29,1.07-.1a4.51,4.51,0,0,0,2.27.26c1.05-.19,1.6-.62,2.63-.11a5.16,5.16,0,0,0,2.37.71c1.88,0,4-1.25,5.57.25a15.73,15.73,0,0,0,4.38,3.24,10.94,10.94,0,0,0,1.76.73V38a13,13,0,0,1-26,0ZM35.82,57.09a8.43,8.43,0,0,1-7.64,0A2,2,0,0,1,27,55.26V52.12a14.64,14.64,0,0,0,10,0v3.14A2,2,0,0,1,35.82,57.09Z"/>
    <path d="M29.94,34.61a3.84,3.84,0,0,1,4.12,0,4,4,0,1,0,.24-2.11,5.75,5.75,0,0,0-4.6,0,4,4,0,1,0,.24,2.11ZM38,32a2,2,0,1,1-2,2A2,2,0,0,1,38,32ZM26,36a2,2,0,1,1,2-2A2,2,0,0,1,26,36Z"/>
    <path d="M31,37a1,1,0,0,0,0,2h2a1,1,0,0,0,0-2Z"/>
    <path d="M37,43a1,1,0,0,0-1-1H28a1,1,0,0,0-1,1,5,5,0,0,0,10,0Zm-7.83,1h5.66a3,3,0,0,1-5.66,0Z"/>
  </g>
</svg>
