<svg xmlns="http://www.w3.org/2000/svg" width="96" height="96" viewBox="0 0 96 96" role="img" aria-label="David">
  <rect width="96" height="96" rx="22" fill="#000"/>
  <g transform="translate(16 8)" fill="#FFFFFF">
    <path d="M39,53.09V51.26A15,15,0,0,0,47,38v0c1.84-.19,3.25-2.29,3.25-5S48.84,28.22,47,28v0h4V27a4,4,0,0,0-4-4A12,12,0,0,0,35,11H29A12,12,0,0,0,17,23a4,4,0,0,0-4,4v1h4v0c-1.84.19-3.25,2.29-3.25,5s1.41,4.78,3.25,5v0a15,15,0,0,0,8,13.26v1.83c-8.71.88-14.51,5.1-16,11.69l2,.44c1.27-5.73,6.24-9.29,14-10.12v.16a4,4,0,0,0,2.32,3.64,10.51,10.51,0,0,0,9.36,0A4,4,0,0,0,39,55.26V55.1c7.78.83,12.75,4.39,14,10.12l2-.44C53.51,58.19,47.71,54,39,53.09ZM48.25,33c0,1.52-.62,2.69-1.25,3v-5.9C47.63,30.31,48.25,31.48,48.25,33Zm-32.5,0c0-1.52.62-2.69,1.25-2.95V36C16.37,35.69,15.75,34.52,15.75,33ZM19,38V28h3a11,11,0,0,0,10-6.42A11,11,0,0,0,42,28h3V38a13,13,0,0,1-26,0ZM35.82,57.09a8.43,8.43,0,0,1-7.64,0A2,2,0,0,1,27,55.26V52.12a14.64,14.64,0,0,0,10,0v3.14A2,2,0,0,1,35.82,57.09Z"/>
    <ellipse cx="38" cy="33.5" rx="2" ry="2.5"/>
    <path d="M31,39h2a1,1,0,0,0,0-2H31a1,1,0,0,0,0,2Z"/>
    <ellipse cx="26" cy="33.5" rx="2" ry="2.5"/>
    <path d="M34.68,43.55a8.21,8.21,0,0,1-5.36,0,1,1,0,1,0-.64,1.9,10.3,10.3,0,0,0,6.64,0,1,1,0,0,0-.64-1.9Z"/>
  </g>
</svg>
